<?xml version="1.0" encoding="utf-8"?>
<!-- Generator: Adobe Illustrator 21.0.2, SVG Export Plug-In . SVG Version: 6.00 Build 0)  -->
<svg version="1.1" id="Layer_2" xmlns="http://www.w3.org/2000/svg" xmlns:xlink="http://www.w3.org/1999/xlink" x="0px" y="0px"
	 viewBox="0 0 37.2 34.3" style="enable-background:new 0 0 37.2 34.3;" xml:space="preserve">
<style type="text/css">
	.st0{fill-rule:evenodd;clip-rule:evenodd;fill:#E0DFDC;}
</style>
<g>
	<path class="st0" d="M17.6,0.3c3.3,0.9,4.5,3.3,4.2,5.4c-1.3,9.7-16,4.3-10-4C12.6,0.6,14.7-0.5,17.6,0.3z"/>
	<path class="st0" d="M28.9,4.7c2.6,0.7,4.4,2.7,4.3,5.1c-0.1,4.3-5.1,7.8-9.6,4.4c-2.8-2.1-1.9-7.5,1.1-9.3
		C25.9,4.3,27.5,4.4,28.9,4.7z"/>
	<path class="st0" d="M5.9,5.3c8.6,1.2,4.3,12.4-1.7,10.9C-2.1,14.6-1.1,4.4,5.9,5.3z"/>
	<path class="st0" d="M32.3,15.8c1.2,0.2,2.2,0.3,3,0.8c4.2,2.9,0.9,11.5-4.7,10.1C24.7,25.2,25.1,14.8,32.3,15.8z"/>
	<path class="st0" d="M23.6,32.1C19.1,38,1.9,30.8,3.8,23.9C5.8,16.1,15.4,8.5,22.2,14C26.5,17.5,26.5,25,23.6,32.1z"/>
</g>
</svg>
