<?xml version="1.0" encoding="utf-8"?>
<!-- Generator: Adobe Illustrator 21.0.2, SVG Export Plug-In . SVG Version: 6.00 Build 0)  -->
<svg version="1.1" id="Graphics" xmlns="http://www.w3.org/2000/svg" xmlns:xlink="http://www.w3.org/1999/xlink" x="0px" y="0px"
	 viewBox="0 0 76.1 122.3" style="enable-background:new 0 0 76.1 122.3;" xml:space="preserve">
<style type="text/css">
	.st0{fill-rule:evenodd;clip-rule:evenodd;fill:#E0DFDC;}
</style>
<g>
	<path class="st0" d="M9.6,91.8c3.2-1.2,5.6,0,6.6,1.9c4.8,8.6-10.3,13-10.4,2.7C5.8,95.1,6.9,92.9,9.6,91.8z"/>
	<path class="st0" d="M21.4,88.7c2.5-1,5.1-0.5,6.5,1.5c2.4,3.5,0.5,9.3-5.1,9.2c-3.5,0-6-4.9-4.6-8.1C18.7,90.1,20,89.3,21.4,88.7z
		"/>
	<path class="st0" d="M3.2,102.8c7.6-4.2,10.9,7.5,5.1,9.8C2.3,115.1-3,106.2,3.2,102.8z"/>
	<path class="st0" d="M30.7,95.6c1.1-0.6,2-1.1,2.9-1.1c5.1-0.1,7.5,8.7,2.2,10.9C30.1,107.7,24.3,99.1,30.7,95.6z"/>
	<path class="st0" d="M33.4,113.9c-0.2,7.4-18.2,11.8-20.9,5.1c-3-7.5,0.3-19.2,9-18.9C27.1,100.4,31.4,106.5,33.4,113.9z"/>
</g>
<g>
	<path class="st0" d="M56.5,43.6c3.3,0.9,4.5,3.3,4.2,5.4c-1.3,9.7-16,4.3-10-4C51.5,43.9,53.6,42.8,56.5,43.6z"/>
	<path class="st0" d="M67.7,48c2.6,0.7,4.4,2.7,4.3,5.1c-0.1,4.3-5.1,7.8-9.6,4.4c-2.8-2.1-1.9-7.5,1.1-9.3
		C64.7,47.6,66.3,47.7,67.7,48z"/>
	<path class="st0" d="M44.7,48.6c8.6,1.2,4.3,12.4-1.7,10.9C36.7,57.9,37.7,47.7,44.7,48.6z"/>
	<path class="st0" d="M71.2,59.1c1.2,0.2,2.2,0.3,3,0.8c4.2,2.9,0.9,11.5-4.7,10.1C63.5,68.5,63.9,58.1,71.2,59.1z"/>
	<path class="st0" d="M62.5,75.4c-4.5,5.8-21.7-1.3-19.9-8.3c2.1-7.8,11.6-15.3,18.5-9.8C65.4,60.8,65.3,68.3,62.5,75.4z"/>
</g>
<g>
	<path class="st0" d="M7.9,4.8c3-1.5,5.6-0.4,6.7,1.3c5.5,8.1-9.2,13.9-10.1,3.6C4.3,8.4,5.2,6.1,7.9,4.8z"/>
	<path class="st0" d="M19.3,0.7c2.4-1.2,5.1-0.9,6.6,0.9c2.7,3.3,1.3,9.2-4.3,9.6c-3.5,0.3-6.4-4.4-5.3-7.7
		C16.7,2.3,18,1.4,19.3,0.7z"/>
	<path class="st0" d="M2.4,16.3c7.2-4.8,11.5,6.5,5.9,9.3C2.5,28.6-3.5,20.3,2.4,16.3z"/>
	<path class="st0" d="M29.2,6.7c1-0.7,1.9-1.3,2.8-1.4c5-0.6,8.3,8,3.1,10.7C29.7,18.9,23.1,10.8,29.2,6.7z"/>
	<path class="st0" d="M33.4,24.8c0.4,7.4-17.1,13.4-20.4,6.9c-3.6-7.2-1.4-19.2,7.4-19.6C26,11.9,30.8,17.5,33.4,24.8z"/>
</g>
</svg>
