<?xml version="1.0" encoding="utf-8"?>
<!-- Generator: Adobe Illustrator 21.0.2, SVG Export Plug-In . SVG Version: 6.00 Build 0)  -->
<svg version="1.1" id="Layer_2" xmlns="http://www.w3.org/2000/svg" xmlns:xlink="http://www.w3.org/1999/xlink" x="0px" y="0px"
	 viewBox="0 0 38.4 34.1" style="enable-background:new 0 0 38.4 34.1;" xml:space="preserve">
<style type="text/css">
	.st0{fill-rule:evenodd;clip-rule:evenodd;fill:#E0DFDC;}
</style>
<g>
	<path class="st0" d="M9.2,3.6c3.2-1.2,5.6,0,6.6,1.9c4.8,8.6-10.3,13-10.4,2.7C5.4,6.8,6.4,4.7,9.2,3.6z"/>
	<path class="st0" d="M21,0.5c2.5-1,5.1-0.5,6.5,1.5c2.4,3.5,0.5,9.3-5.1,9.2c-3.5,0-6-4.9-4.6-8.1C18.2,1.9,19.6,1,21,0.5z"/>
	<path class="st0" d="M2.8,14.6c7.6-4.2,10.9,7.5,5.1,9.8C1.8,26.8-3.4,18,2.8,14.6z"/>
	<path class="st0" d="M30.3,7.4c1.1-0.6,2-1.1,2.9-1.1c5.1-0.1,7.5,8.7,2.2,10.9C29.7,19.5,23.9,10.8,30.3,7.4z"/>
	<path class="st0" d="M33,25.7c-0.2,7.4-18.2,11.8-20.9,5.1c-3-7.5,0.3-19.2,9-18.9C26.6,12.2,31,18.2,33,25.7z"/>
</g>
</svg>
