<?xml version="1.0" encoding="utf-8"?>
<!-- Generator: Adobe Illustrator 21.0.0, SVG Export Plug-In . SVG Version: 6.00 Build 0)  -->
<svg version="1.1" id="Capa_1" xmlns="http://www.w3.org/2000/svg" xmlns:xlink="http://www.w3.org/1999/xlink" x="0px" y="0px"
	 viewBox="0 0 50 50" style="enable-background:new 0 0 50 50;" xml:space="preserve">
<style type="text/css">
	.st0{fill:#FFC757;}
</style>
<title>close-icon</title>
<desc>Created with Sketch.</desc>
<g id="Mobile-menu">
	<g id="close-icon">
		<g id="Group-3" transform="translate(18.000000, 18.000000)">
			<path id="Rectangle-25" class="st0" d="M-2.3-4.9l21.6,21c0.8,0.8,0.8,2,0,2.9l0,0c-0.8,0.8-2.1,0.8-2.9,0l-21.6-21
				c-0.8-0.8-0.8-2,0-2.9l0,0C-4.6-5.8-3.1-5.8-2.3-4.9z"/>
			
				<g id="Group-2" transform="translate(7.443576, 7.000000) scale(-1, 1) translate(-7.443576, -7.000000) translate(0.443576, 0.000000)">
				<path id="Rectangle-25_1_" class="st0" d="M-1.8-4.9l21.6,21c0.8,0.8,0.8,2,0,2.9l0,0c-0.8,0.8-2.1,0.8-2.9,0l-21.6-21
					c-0.8-0.8-0.8-2,0-2.9l0,0C-4.1-5.8-2.7-5.8-1.8-4.9z"/>
			</g>
		</g>
	</g>
</g>
</svg>
