<?xml version="1.0" encoding="utf-8"?>
<!-- Generator: Adobe Illustrator 21.0.0, SVG Export Plug-In . SVG Version: 6.00 Build 0)  -->
<svg version="1.1" id="Layer_2" xmlns="http://www.w3.org/2000/svg" xmlns:xlink="http://www.w3.org/1999/xlink" x="0px" y="0px"
	 viewBox="0 0 100.8 100.8" style="enable-background:new 0 0 100.8 100.8;" xml:space="preserve">
<style type="text/css">
	.st0{fill:#EF4D5E;}
	.st1{fill:#FFFFFF;}
</style>
<path class="st0" d="M86.8,15.5L69.6,32.6l-1-0.4l-0.4-1l17.1-17.1C76.4,5.3,64,0,50.4,0s-26,5.4-34.9,14.1l17.1,17.1l-0.4,1l-1,0.4
	L14,15.5c-8.7,9-14,21.3-14,34.9s5.4,26,14.1,34.9l17.1-17.1l1,0.4l0.4,1L15.5,86.8c9,8.7,21.3,14,34.9,14s26-5.4,34.9-14.1
	L68.2,69.6l0.4-1l1-0.4l17.1,17.1c8.8-9,14.1-21.3,14.1-34.9S95.5,24.5,86.8,15.5z M9.1,52.6c-1.2,0-2.2-1-2.2-2.2s1-2.2,2.2-2.2
	c0.1,0,0.4,0,0.5,0.1l0,0l8.4,2.2l-8.4,2l0,0C9.5,52.6,9.2,52.6,9.1,52.6z M13.6,67.9L13.6,67.9c-0.1,0.1-0.3,0.1-0.4,0.3
	c-1.1,0.4-2.4,0-2.9-1.2c-0.4-1.1,0-2.4,1.2-2.9C11.7,64,12,64,12.1,64l0,0l8.6-1.2L13.6,67.9z M12,36.8L12,36.8
	c-0.1,0-0.4-0.1-0.5-0.1c-1.1-0.4-1.6-1.8-1.2-2.9c0.4-1.1,1.8-1.6,2.9-1.2c0.1,0.1,0.3,0.1,0.4,0.3l0,0l6.9,5.2L12,36.8z
	 M36.8,88.9L36.8,88.9c0,0.1-0.1,0.4-0.1,0.5c-0.4,1.1-1.8,1.6-2.9,1.2c-1.1-0.4-1.6-1.8-1.2-2.9c0.1-0.1,0.1-0.3,0.3-0.4l0,0
	l5.2-6.9L36.8,88.9z M32.9,13.6L32.9,13.6c-0.1-0.1-0.1-0.3-0.3-0.4c-0.4-1.1,0-2.4,1.2-2.9c1.1-0.4,2.4,0,2.9,1.2
	c0.1,0.1,0.1,0.4,0.1,0.5l0,0l1.2,8.6L32.9,13.6z M50.4,93.9c-1.2,0-2.2-1-2.2-2.2c0-0.1,0-0.4,0.1-0.5l0,0l2.2-8.4l2.2,8.4l0,0
	c0,0.1,0.1,0.4,0.1,0.5C52.6,93,51.6,93.9,50.4,93.9z M52.6,9.6L52.6,9.6L50.4,18l-2.2-8.4l0,0c0-0.1-0.1-0.4-0.1-0.5
	c0-1.2,1-2.2,2.2-2.2s2.2,1,2.2,2.2C52.6,9.2,52.6,9.5,52.6,9.6z M68.2,87.8c0.4,1.1,0,2.4-1.2,2.9c-1.1,0.4-2.4,0-2.9-1.2
	C64,89.3,64,89,64,88.9l0,0l-1.2-8.6l5.2,6.9l0,0C68.1,87.4,68.2,87.5,68.2,87.8z M67.9,13.6l-5.2,6.9L64,12l0,0
	c0-0.1,0.1-0.4,0.1-0.5c0.4-1.1,1.8-1.6,2.9-1.2c1.1,0.4,1.6,1.8,1.2,2.9C68.2,13.3,68.1,13.5,67.9,13.6L67.9,13.6z M87.2,32.9
	L87.2,32.9c0.1-0.1,0.3-0.1,0.4-0.3c1.1-0.4,2.4,0,2.9,1.2c0.4,1.1,0,2.4-1.2,2.9c-0.1,0.1-0.4,0.1-0.5,0.1l0,0L80.3,38L87.2,32.9z
	 M90.6,67c-0.4,1.1-1.8,1.6-2.9,1.2c-0.1-0.1-0.3-0.1-0.4-0.3l0,0l-7.1-5.2l8.6,1.2l0,0c0.1,0,0.4,0.1,0.5,0.1
	C90.5,64.7,91,65.9,90.6,67z M91.7,52.6c-0.1,0-0.4,0-0.5-0.1l0,0l-8.4-2l8.4-2.2l0,0c0.1,0,0.4-0.1,0.5-0.1c1.2,0,2.2,1,2.2,2.2
	C93.9,51.6,93,52.6,91.7,52.6z"/>
<circle class="st1" cx="51.5" cy="50.3" r="17"/>
</svg>
