<?xml version="1.0" encoding="utf-8"?>
<!-- Generator: Adobe Illustrator 21.0.2, SVG Export Plug-In . SVG Version: 6.00 Build 0)  -->
<svg version="1.1" id="Layer_2" xmlns="http://www.w3.org/2000/svg" xmlns:xlink="http://www.w3.org/1999/xlink" x="0px" y="0px"
	 viewBox="0 0 243.2 40.8" style="enable-background:new 0 0 243.2 40.8;" xml:space="preserve">
<style type="text/css">
	.st0{fill:#C28F2C;}
	.st1{fill:#FFFFFF;}
</style>
<g>
	<path class="st0" d="M124.2,11.6h3.5v7l6.5-7h4.3l-6.6,6.8l6.9,9.3h-4.3l-5-6.9l-1.9,1.9v4.9h-3.5V11.6z"/>
	<path class="st0" d="M140.7,10.9h3.7V14h-3.7V10.9z M140.8,15.4h3.5v12.3h-3.5V15.4z"/>
	<path class="st0" d="M147,21.5L147,21.5c0-4.2,2.7-6.4,5.6-6.4c1.9,0,3,0.9,3.8,1.8v-6.1h3.5v16.8h-3.5v-1.8c-0.9,1.1-2,2-3.8,2
		C149.7,27.9,147,25.7,147,21.5z M156.5,21.5L156.5,21.5c0-2.1-1.4-3.4-3-3.4c-1.6,0-3,1.3-3,3.4v0c0,2,1.4,3.4,3,3.4
		C155.1,24.9,156.5,23.6,156.5,21.5z"/>
	<path class="st0" d="M162.1,26.1l1.5-2.3c1.3,1,2.7,1.5,3.9,1.5c1,0,1.5-0.4,1.5-0.9v0c0-0.8-1.2-1-2.6-1.4
		c-1.7-0.5-3.7-1.3-3.7-3.7v0c0-2.5,2-3.9,4.5-3.9c1.6,0,3.3,0.5,4.6,1.4l-1.3,2.4c-1.2-0.7-2.4-1.2-3.3-1.2c-0.9,0-1.3,0.4-1.3,0.9
		v0c0,0.7,1.2,1,2.5,1.5c1.7,0.6,3.7,1.4,3.7,3.7v0c0,2.7-2,4-4.7,4C165.7,27.9,163.7,27.3,162.1,26.1z"/>
	<path class="st0" d="M173.7,11.6h3.8l3.3,10.9l3.6-10.9h3l3.6,10.9l3.3-10.9h3.7l-5.5,16.2h-3.1L186,17.3l-3.6,10.5h-3.1
		L173.7,11.6z"/>
	<path class="st0" d="M198.3,21.6L198.3,21.6c0-3.6,2.9-6.5,6.7-6.5c3.8,0,6.6,2.8,6.6,6.4v0c0,3.5-2.9,6.4-6.7,6.4
		C201.2,28,198.3,25.1,198.3,21.6z M208.2,21.6L208.2,21.6c0-1.9-1.3-3.4-3.2-3.4c-2,0-3.2,1.5-3.2,3.4v0c0,1.8,1.3,3.4,3.2,3.4
		C207,24.9,208.2,23.4,208.2,21.6z"/>
	<path class="st0" d="M214.2,15.4h3.5v2.5c0.7-1.7,1.9-2.8,3.9-2.7v3.7h-0.2c-2.3,0-3.7,1.4-3.7,4.3v4.6h-3.5V15.4z"/>
	<path class="st0" d="M224,10.9h3.5v16.8H224V10.9z"/>
	<path class="st0" d="M230.2,21.5L230.2,21.5c0-4.2,2.7-6.4,5.6-6.4c1.9,0,3,0.9,3.8,1.8v-6.1h3.5v16.8h-3.5v-1.8
		c-0.9,1.1-2,2-3.8,2C232.9,27.9,230.2,25.7,230.2,21.5z M239.7,21.5L239.7,21.5c0-2.1-1.4-3.4-3-3.4c-1.6,0-3,1.3-3,3.4v0
		c0,2,1.4,3.4,3,3.4C238.3,24.9,239.7,23.6,239.7,21.5z"/>
</g>
<g>
	<circle class="st1" cx="80.6" cy="20.4" r="20.4"/>
	<path class="st1" d="M50.6,3.2L50.6,3.2c-1.7-2-4.1-3-6.5-3.1c0,0,0,0-0.1,0c-0.1,0-0.2,0-0.3,0c0,0-0.1,0-0.1,0h0c0,0-0.1,0-0.1,0
		c-0.1,0-0.1,0-0.2,0c-0.1,0-0.2,0-0.3,0c0,0,0,0,0,0c-2.2,0.1-4.1,1-5.6,2.5l-11,9.5L15.1,2.2c-1.3-1.1-2.9-1.8-4.5-2.1
		c0,0-0.1,0-0.1,0c-0.1,0-0.2,0-0.3,0c-0.1,0-0.1,0-0.2,0c-0.1,0-0.2,0-0.3,0C9.6,0,9.5,0,9.5,0C9.4,0,9.3,0,9.2,0c0,0-0.1,0-0.1,0
		h0C9.1,0,9,0,9,0C8.9,0,8.8,0,8.8,0C8.7,0,8.6,0,8.6,0c-0.1,0-0.2,0-0.3,0c-0.1,0-0.1,0-0.2,0c-0.1,0-0.2,0-0.3,0c0,0-0.1,0-0.1,0
		c-2.1,0.3-4,1.3-5.5,3.1l0,0C0.8,4.8,0.1,6.7,0,8.6c0,0,0,0.1,0,0.1C0,8.9,0,9,0,9.1c0,0,0,0.1,0,0.1v22.5c0,5,4.1,9.1,9.1,9.1h0
		c5,0,9.1-4.1,9.1-9.1V29l2,1.7c1.8,1.5,4,2.2,6.2,2.2c2.2,0.1,4.4-0.7,6.2-2.2l2-1.7v2.6c0,5,4.1,9.1,9.1,9.1h0
		c5,0,9.1-4.1,9.1-9.1V9.9C53,7.5,52.3,5.1,50.6,3.2z"/>
</g>
</svg>
