<?xml version="1.0" encoding="utf-8"?>
<!-- Generator: Adobe Illustrator 21.0.2, SVG Export Plug-In . SVG Version: 6.00 Build 0)  -->
<svg version="1.1" id="Layer_2" xmlns="http://www.w3.org/2000/svg" xmlns:xlink="http://www.w3.org/1999/xlink" x="0px" y="0px"
	 viewBox="0 0 146.3 158.3" style="enable-background:new 0 0 146.3 158.3;" xml:space="preserve">
<style type="text/css">
	.st0{fill:#231F20;}
	.st1{fill:#414EA0;}
	.st2{fill:none;stroke:#231F20;stroke-width:2;stroke-miterlimit:10;}
	.st3{fill:#FFFFFF;}
</style>
<path class="st0" d="M52.1,136.4l2.1,17.1c0,0.2-0.1,0.4-0.3,0.5l-13.1,3.3c-0.5,0.1-0.4,0.9,0.1,0.9h19.8c0.3,0,0.5-0.3,0.4-0.5
	l-4.7-23.1c-0.1-0.3-0.4-0.5-0.6-0.3l-3.5,1.7C52.2,136,52.1,136.2,52.1,136.4z"/>
<path class="st0" d="M79.9,130.3l2.3,27.2c0,0.4,0.4,0.8,0.9,0.7l15.8-0.9c0.9-0.1,1.1-1.2,0.3-1.6l-11.4-5.1
	c-0.3-0.1-0.4-0.3-0.5-0.6l-2.8-18.8c0-0.3-0.3-0.5-0.5-0.6l-2.9-1C80.4,129.3,79.8,129.8,79.9,130.3z"/>
<path class="st1" d="M20.4,38.8L20,38.5c-0.8-0.6-0.6-1.7,0.3-2.1l3.2-1.6c0.9-0.4,1.1-1.4,0.4-2.1l-1.9-1.8
	c-0.7-0.7-0.4-1.8,0.6-2.2l7.5-2.5c0.7-0.2,1.1-0.9,1-1.5L30,21c-0.2-0.9,0.7-1.8,1.9-1.6l6.5,1.1c0.8,0.1,1.5-0.2,1.8-0.9l1.8-4.2
	c0.4-0.9,1.7-1.2,2.6-0.6l3.7,2.8c0.8,0.6,2,0.4,2.5-0.4l1.7-3c0.5-1,2.1-1,2.8-0.1l1.5,2c0.5,0.7,1.5,0.8,2.3,0.4l3.6-2.1
	c1-0.6,2.3-0.1,2.5,0.9l0.4,2.2c0.2,0.9,1.3,1.4,2.3,1l6.4-2.9c1.1-0.5,2.3,0.2,2.3,1.2v1.6c0,0.9,1.1,1.6,2.1,1.3l8.3-2.5
	c1.2-0.4,2.4,0.6,2.1,1.6l-0.2,0.8c-0.3,0.9,0.7,1.8,1.8,1.7l8.2-1.1c1.2-0.2,2.1,0.8,1.8,1.7l-0.2,0.7c-0.3,0.9,0.6,1.8,1.7,1.7
	l10.9-0.8c1.2-0.1,2.1,0.9,1.6,1.9l-0.9,1.8c-0.4,0.8,0.2,1.7,1.1,1.8l6.9,1.3c1,0.2,1.5,1.1,1.1,1.8l-1.9,3.9
	c-0.4,0.8,0.2,1.7,1.2,1.8l7.8,1.3c1.3,0.2,1.7,1.5,0.8,2.3l-4.9,4.1c-0.7,0.5-0.6,1.4,0.1,2l5.7,4.3c0.7,0.5,0.7,1.5,0,2l-2.6,1.9
	c-0.7,0.5-0.7,1.5,0,2l5.4,4c0.7,0.5,0.7,1.5,0,2l-5.2,3.7c-0.7,0.5-0.8,1.3-0.2,1.9l5.7,5.8c0.6,0.6,0.5,1.5-0.2,1.9l-3.9,2.5
	c-0.7,0.4-0.8,1.3-0.3,1.8l4.5,5.4c0.5,0.6,0.3,1.5-0.4,1.9l-5.2,2.8c-0.6,0.4-0.9,1-0.6,1.7l2.4,5c0.3,0.5,0.1,1.1-0.4,1.5
	l-2.2,1.7c-0.5,0.4-0.7,1-0.4,1.5l2.1,4.3c0.4,0.9-0.3,1.9-1.5,1.9H127c-1,0-1.8,0.8-1.6,1.6l1.9,7.5c0.2,0.9-0.7,1.8-1.8,1.6
	l-0.4-0.1c-1.1-0.2-2.1,0.7-1.8,1.7l0.2,0.5c0.3,0.8-0.5,1.7-1.5,1.7h-3.3c-0.9,0-1.6,0.7-1.6,1.4l0.4,5.1c0.1,0.9-1,1.7-2,1.4
	l-7.5-1.9c-0.9-0.2-1.8,0.2-2,1l-1,3.3c-0.3,0.9-1.5,1.3-2.4,0.8l-3.5-1.8c-0.8-0.4-1.9-0.1-2.3,0.6l-1.4,2.9
	c-0.4,0.9-1.7,1.1-2.5,0.5l-3.5-2.7c-0.7-0.6-1.8-0.5-2.4,0.2l-2.1,2.5c-0.6,0.7-1.7,0.8-2.4,0.2l-4-3.4c-0.8-0.7-2.1-0.5-2.5,0.4
	l-1.5,2.5c-0.5,0.8-1.7,1-2.5,0.4l-3.1-2.3c-0.8-0.6-2.1-0.4-2.5,0.5l-0.2,0.4c-0.4,0.9-1.8,1.1-2.6,0.5l-3.2-2.6
	c-0.7-0.6-2-0.5-2.5,0.3l-3,4.5c-0.5,0.8-1.8,0.9-2.6,0.2l-4.2-4c-0.7-0.7-2-0.6-2.5,0.2l-1.5,2c-0.5,0.7-1.7,0.8-2.5,0.2l-3.7-3.2
	c-0.6-0.5-1.5-0.5-2.2-0.1l-0.8,0.6c-0.8,0.6-2.1,0.3-2.5-0.6l-1.7-3.9c-0.4-0.8-1.6-1.2-2.4-0.6l-1.5,0.9c-1,0.6-2.3,0.1-2.5-0.9
	l-1-5.2c-0.2-0.8-1.1-1.3-2-1.1l-0.9,0.2c-1,0.2-2-0.4-2-1.3v-5.6c0-0.8-0.8-1.4-1.8-1.3l-0.8,0.1c-1.1,0.1-1.9-0.7-1.7-1.6l1.8-7.5
	c0.2-0.9-0.6-1.7-1.7-1.6l-0.2,0c-1.2,0.1-2-0.9-1.6-1.8l3.5-7.9c0.4-0.8-0.3-1.7-1.3-1.8l-0.7-0.1c-1.1-0.1-1.8-1.1-1.2-2l2.7-4.2
	c0.5-0.8,0-1.7-1-1.9l-1.6-0.3c-1.1-0.2-1.6-1.3-1-2l2.5-3.3c0.5-0.7,0.2-1.7-0.8-2l-1-0.3c-1-0.3-1.3-1.3-0.7-2.1l3.7-4.3
	c0.7-0.8,0.2-1.8-0.8-2.1l-1.9-0.4c-1.1-0.3-1.5-1.4-0.8-2.1l6.5-7.2c0.7-0.7,0.3-1.8-0.8-2.1l-2-0.5c-1.1-0.3-1.5-1.4-0.8-2.1
	l3.9-4.1c0.6-0.6,0.4-1.6-0.4-2l-1.9-1c-0.9-0.5-1-1.6-0.2-2.2l4.1-2.8C21.3,40.8,21.3,39.6,20.4,38.8z"/>
<g>
	<path class="st2" d="M31.6,25.7C18.8,22.5,9.9,13.9,3.8,1.5C3.4,0.7,2.1,0.9,1.9,1.8C-1.8,20,5.5,33.2,22.5,42
		c0.3,0.2,0.7,0.1,1-0.1l11.3-8.4c0.4-0.3,0.5-0.8,0.3-1.2l-2.8-6.1C32.1,26,31.9,25.8,31.6,25.7z"/>
	<path class="st2" d="M1.1,12.8c2.3-0.5,4.6-1.8,7-4"/>
	<path class="st2" d="M1.7,17.6c3-0.3,6.1-2,9.1-5.1"/>
	<path class="st2" d="M2.9,22c4.1-0.6,7.6-2.8,10.6-6.4"/>
	<path class="st2" d="M5.7,27.6c4.2-1.8,7.7-5,10.7-9.5"/>
	<path class="st2" d="M11.1,34c3.8-3.2,6.9-7.5,8.9-13.4"/>
	<path class="st2" d="M15.9,38c3.6-4.8,6.3-9.8,7.9-15.1"/>
	<path class="st2" d="M19.9,40.6c4.5-4.6,7.6-9.7,8.6-15.8"/>
</g>
<g>
	<path class="st2" d="M114.7,28.9c12.8-3.2,21.7-11.8,27.8-24.2c0.4-0.8,1.6-0.7,1.8,0.2c3.7,18.2-3.6,31.4-20.6,40.2
		c-0.3,0.2-0.7,0.1-1-0.1l-11.3-8.4c-0.4-0.3-0.5-0.8-0.3-1.2l2.8-6.1C114.2,29.1,114.4,28.9,114.7,28.9z"/>
	<path class="st2" d="M145.2,16c-2.3-0.5-4.6-1.8-7-4"/>
	<path class="st2" d="M144.6,20.7c-3-0.3-6.1-2-9.1-5.1"/>
	<path class="st2" d="M143.4,25.1c-4.1-0.6-7.6-2.8-10.6-6.4"/>
	<path class="st2" d="M140.6,30.7c-4.2-1.8-7.7-5-10.7-9.5"/>
	<path class="st2" d="M135.2,37.2c-3.8-3.2-6.9-7.5-8.9-13.4"/>
	<path class="st2" d="M130.4,41.1c-3.6-4.8-6.3-9.8-7.9-15.1"/>
	<path class="st2" d="M126.4,43.7c-4.5-4.6-7.6-9.7-8.6-15.8"/>
</g>
<path class="st3" d="M95,46.1c-0.7,0-1.4,0.1-2.1,0.2v0c-0.2,0-0.4,0.1-0.6,0.1c0,0,0,0,0,0c-14.6,2.7-24.8,3-38,0.1
	c-0.2,0-0.3-0.1-0.5-0.1c-0.1,0-0.1,0-0.2,0l0,0c-0.7-0.1-1.5-0.2-2.2-0.2c-7.4,0-13.4,6-13.4,13.4c0,7.4,6,13.4,13.4,13.4
	c1.4,0,2.8-0.2,4.1-0.7c12.5-2.4,23.6-2.2,36.9,0.4c0,0,0.1,0,0.1,0c0.2,0,0.3,0.1,0.5,0.1v0c0.7,0.1,1.4,0.2,2.2,0.2
	c7.4,0,13.4-6,13.4-13.4C108.4,52.1,102.4,46.1,95,46.1z"/>
<g>
	<path class="st0" d="M53.1,54.7c-2.2,0-3.9,1.8-3.9,3.9s1.8,3.9,3.9,3.9s3.9-1.8,3.9-3.9S55.3,54.7,53.1,54.7L53.1,54.7z"/>
</g>
<g>
	<path class="st0" d="M93.3,54.7c-2.2,0-3.9,1.8-3.9,3.9s1.8,3.9,3.9,3.9s3.9-1.8,3.9-3.9S95.4,54.7,93.3,54.7L93.3,54.7z"/>
</g>
</svg>
