<?xml version="1.0" encoding="utf-8"?>
<!-- Generator: Adobe Illustrator 21.0.2, SVG Export Plug-In . SVG Version: 6.00 Build 0)  -->
<svg version="1.1" id="Layer_2" xmlns="http://www.w3.org/2000/svg" xmlns:xlink="http://www.w3.org/1999/xlink" x="0px" y="0px"
	 viewBox="0 0 101 40.8" style="enable-background:new 0 0 101 40.8;" xml:space="preserve">
<style type="text/css">
	.st0{fill:#424FA1;}
</style>
<g>
	<circle class="st0" cx="80.6" cy="20.4" r="20.4"/>
	<path class="st0" d="M50.6,3.2L50.6,3.2c-1.7-2-4.1-3-6.5-3.1c0,0,0,0-0.1,0c-0.1,0-0.2,0-0.3,0c0,0-0.1,0-0.1,0h0c0,0-0.1,0-0.1,0
		c-0.1,0-0.1,0-0.2,0c-0.1,0-0.2,0-0.3,0c0,0,0,0,0,0c-2.2,0.1-4.1,1-5.6,2.5l-11,9.5L15.1,2.2c-1.3-1.1-2.9-1.8-4.5-2.1
		c0,0-0.1,0-0.1,0c-0.1,0-0.2,0-0.3,0c-0.1,0-0.1,0-0.2,0c-0.1,0-0.2,0-0.3,0C9.6,0,9.5,0,9.5,0C9.4,0,9.3,0,9.2,0c0,0-0.1,0-0.1,0
		h0C9.1,0,9,0,9,0C8.9,0,8.8,0,8.8,0C8.7,0,8.6,0,8.6,0c-0.1,0-0.2,0-0.3,0c-0.1,0-0.1,0-0.2,0c-0.1,0-0.2,0-0.3,0c0,0-0.1,0-0.1,0
		c-2.1,0.3-4,1.3-5.5,3.1l0,0C0.8,4.8,0.1,6.7,0,8.6c0,0,0,0.1,0,0.1C0,8.9,0,9,0,9.1c0,0,0,0.1,0,0.1v22.5c0,5,4.1,9.1,9.1,9.1h0
		c5,0,9.1-4.1,9.1-9.1V29l2,1.7c1.8,1.5,4,2.2,6.2,2.2c2.2,0.1,4.4-0.7,6.2-2.2l2-1.7v2.6c0,5,4.1,9.1,9.1,9.1h0
		c5,0,9.1-4.1,9.1-9.1V9.9C53,7.5,52.3,5.1,50.6,3.2z"/>
</g>
</svg>
