<?xml version="1.0" encoding="utf-8"?>
<!-- Generator: Adobe Illustrator 21.0.0, SVG Export Plug-In . SVG Version: 6.00 Build 0)  -->
<svg version="1.1" id="Layer_2" xmlns="http://www.w3.org/2000/svg" xmlns:xlink="http://www.w3.org/1999/xlink" x="0px" y="0px"
	 viewBox="0 0 140.7 127.5" style="enable-background:new 0 0 140.7 127.5;" xml:space="preserve">
<style type="text/css">
	.st0{fill:none;}
	.st1{fill:#231F20;}
	.st2{fill:#414EA0;}
	.st3{fill:#FFFFFF;}
</style>
<g>
	<line class="st0" x1="24.6" y1="102" x2="24.6" y2="127.5"/>
	<rect x="23.1" y="102" class="st1" width="3" height="25.5"/>
</g>
<g>
	<line class="st0" x1="119.6" y1="102" x2="119.6" y2="127.5"/>
	<rect x="118.1" y="102" class="st1" width="3" height="25.5"/>
</g>
<path class="st2" d="M134.9,8.4L134.9,8.4c-4.5-5.2-10.8-8.1-17.2-8.4h-0.1c-0.3,0-0.6,0-0.9,0c-0.1,0-0.2,0-0.3,0l0,0
	c-0.1,0-0.1,0-0.2,0c-0.2,0-0.3,0-0.5,0c-0.3,0-0.6,0-0.9,0l0,0c-5.8,0.4-11,2.8-15,6.5L70.4,31.9l-30.2-26c-3.5-3-7.7-4.9-12.1-5.6
	c-0.1,0-0.2,0-0.3,0c-0.3,0-0.6-0.1-0.8-0.1c-0.2,0-0.3,0-0.5,0s-0.5,0-0.7-0.1c-0.2,0-0.4,0-0.5,0c-0.2,0-0.4,0-0.7,0
	c-0.1,0-0.2,0-0.2,0l0,0c-0.1,0-0.2,0-0.3,0c-0.2,0-0.5,0-0.7,0s-0.3,0-0.5,0s-0.5,0-0.7,0.1c-0.1,0-0.3,0-0.4,0
	c-0.3,0-0.6,0.1-0.9,0.1c-0.1,0-0.2,0-0.2,0C15,1.2,9.8,3.9,5.9,8.4l0,0C2.2,12.6,0.3,17.8,0,22.9c0,0.1,0,0.2,0,0.3
	c0,0.3,0,0.5,0,0.8c0,0.1,0,0.2,0,0.2v60.1c0,13.4,10.9,24.3,24.3,24.3l0,0c13.4,0,24.3-10.9,24.3-24.3v-7.1l5.3,4.6
	c4.7,4.1,10.6,6,16.4,5.8c5.8,0.1,11.7-1.8,16.4-5.8l5.2-4.5v7c0,13.4,10.9,24.3,24.3,24.3l0,0c13.4,0,24.3-10.9,24.3-24.3v-58
	C141.2,20.1,139.3,13.6,134.9,8.4z"/>
<circle class="st3" cx="43.9" cy="43" r="16.5"/>
<circle class="st3" cx="99.8" cy="43" r="16.5"/>
</svg>
