<?xml version="1.0" encoding="utf-8"?>
<!-- Generator: Adobe Illustrator 21.0.0, SVG Export Plug-In . SVG Version: 6.00 Build 0)  -->
<svg version="1.1" id="Layer_2" xmlns="http://www.w3.org/2000/svg" xmlns:xlink="http://www.w3.org/1999/xlink" x="0px" y="0px"
	 viewBox="0 0 108.5 124.1" style="enable-background:new 0 0 108.5 124.1;" xml:space="preserve">
<style type="text/css">
	.st0{fill:none;}
	.st1{fill:#231F20;}
	.st2{fill:#FFC443;}
	.st3{fill:#FFFFFF;}
</style>
<g>
	<line class="st0" x1="51.7" y1="98.6" x2="51.7" y2="124.1"/>
	<rect x="50.2" y="98.6" class="st1" width="3" height="25.5"/>
</g>
<g>
	<line class="st0" x1="61.7" y1="98.6" x2="61.7" y2="124.1"/>
	<rect x="60.2" y="98.6" class="st1" width="3" height="25.5"/>
</g>
<circle class="st2" cx="54.3" cy="54.3" r="54.3"/>
<g>
	<path class="st3" d="M37.4,25.1c6.9,0,12.5,5.6,12.5,12.5S44.2,50,37.4,50s-12.5-5.6-12.5-12.5S30.5,25.1,37.4,25.1 M37.4,21.1
		c-9.1,0-16.5,7.4-16.5,16.5S28.3,54,37.4,54s16.5-7.4,16.5-16.5S46.5,21.1,37.4,21.1L37.4,21.1z"/>
</g>
<g>
	<path class="st3" d="M70.3,25.1c6.9,0,12.5,5.6,12.5,12.5S77.2,50,70.3,50s-12.5-5.6-12.5-12.5S63.4,25.1,70.3,25.1 M70.3,21.1
		c-9.1,0-16.5,7.4-16.5,16.5S61.2,54,70.3,54s16.5-7.4,16.5-16.5S79.4,21.1,70.3,21.1L70.3,21.1z"/>
</g>
<path class="st3" d="M23,36.7c0.6-8,7.6-14,15.5-13.4S52.3,31,51.7,39.1c-0.6,8-7.6,14-15.5,13.4S22.4,44.7,23,36.7z"/>
<rect x="46.8" y="64.7" transform="matrix(0.7071 -0.7071 0.7071 0.7071 -35.1523 59.5036)" class="st1" width="14.9" height="14.9"/>
<path class="st3" d="M56,36.4c0.6-8,7.6-14,15.5-13.4c7.9,0.7,13.8,7.7,13.1,15.8s-7.6,14-15.5,13.4C61.2,51.5,55.3,44.4,56,36.4z"
	/>
</svg>
