<?xml version="1.0" encoding="utf-8"?>
<!-- Generator: Adobe Illustrator 21.0.2, SVG Export Plug-In . SVG Version: 6.00 Build 0)  -->
<svg version="1.1" id="Layer_2" xmlns="http://www.w3.org/2000/svg" xmlns:xlink="http://www.w3.org/1999/xlink" x="0px" y="0px"
	 viewBox="0 0 140.7 108.7" style="enable-background:new 0 0 140.7 108.7;" xml:space="preserve">
<style type="text/css">
	.st0{opacity:0.5;fill:#6B97CF;}
</style>
<path class="st0" d="M116.3,0L116.3,0c-0.1,0-0.1,0-0.2,0c-0.2,0-0.3,0-0.5,0c-0.3,0-0.6,0-0.9,0c0,0,0,0,0,0
	c-5.8,0.4-11,2.8-15,6.5L70.4,31.9l-30.2-26c-3.5-3-7.7-4.9-12.1-5.6c-0.1,0-0.2,0-0.3,0c-0.3,0-0.6-0.1-0.8-0.1c-0.2,0-0.3,0-0.5,0
	c-0.2,0-0.5,0-0.7-0.1c-0.2,0-0.4,0-0.5,0c-0.2,0-0.4,0-0.7,0c-0.1,0-0.2,0-0.2,0h0c-0.1,0-0.2,0-0.3,0c-0.2,0-0.5,0-0.7,0
	c-0.2,0-0.3,0-0.5,0c-0.2,0-0.5,0-0.7,0.1c-0.1,0-0.3,0-0.4,0c-0.3,0-0.6,0.1-0.9,0.1c-0.1,0-0.2,0-0.2,0C15,1.2,9.8,3.9,5.9,8.4
	C2.2,12.6,0.3,17.8,0,22.9c0,0.1,0,0.2,0,0.3c0,0.3,0,0.5,0,0.8c0,0.1,0,0.2,0,0.2v60.1c0,13.4,10.9,24.3,24.3,24.3h0
	c13.4,0,24.3-10.9,24.3-24.3v-7.1l5.3,4.6c4.6,3.9,10.2,5.8,15.8,5.8c0.2,0,0.4,0,0.6,0c0.2,0,0.4,0,0.6,0c5.6,0,11.3-1.9,15.8-5.8
	l5.2-4.5v7c0,13.4,10.9,24.3,24.3,24.3h0c13.4,0,24.3-10.9,24.3-24.3v-58c0.5-6.3-1.3-12.8-5.8-17.9h0c-4.5-5.2-10.8-8.1-17.2-8.4
	c0,0-0.1,0-0.1,0c-0.3,0-0.6,0-0.9,0C116.5,0,116.4,0,116.3,0L116.3,0z"/>
</svg>
