<?xml version="1.0" encoding="utf-8"?>
<!-- Generator: Adobe Illustrator 21.0.2, SVG Export Plug-In . SVG Version: 6.00 Build 0)  -->
<svg version="1.1" id="Layer_2" xmlns="http://www.w3.org/2000/svg" xmlns:xlink="http://www.w3.org/1999/xlink" x="0px" y="0px"
	 viewBox="0 0 140.7 108.7" style="enable-background:new 0 0 140.7 108.7;" xml:space="preserve">
<style type="text/css">
	.st0{fill:#6B97CF;}
	.st1{fill:#FFFFFF;}
</style>
<path class="st0" d="M116.3,0L116.3,0c-0.1,0-0.1,0-0.2,0c-0.2,0-0.3,0-0.5,0c-0.3,0-0.6,0-0.9,0c0,0,0,0,0,0
	c-5.8,0.4-11,2.8-15,6.5L70.4,31.9l-30.2-26c-3.5-3-7.7-4.9-12.1-5.6c-0.1,0-0.2,0-0.3,0c-0.3,0-0.6-0.1-0.8-0.1c-0.2,0-0.3,0-0.5,0
	c-0.2,0-0.5,0-0.7-0.1c-0.2,0-0.4,0-0.5,0c-0.2,0-0.4,0-0.7,0c-0.1,0-0.2,0-0.2,0h0c-0.1,0-0.2,0-0.3,0c-0.2,0-0.5,0-0.7,0
	c-0.2,0-0.3,0-0.5,0c-0.2,0-0.5,0-0.7,0.1c-0.1,0-0.3,0-0.4,0c-0.3,0-0.6,0.1-0.9,0.1c-0.1,0-0.2,0-0.2,0C15,1.2,9.8,3.9,5.9,8.4
	C2.2,12.6,0.3,17.8,0,22.9c0,0.1,0,0.2,0,0.3c0,0.3,0,0.5,0,0.8c0,0.1,0,0.2,0,0.2v60.1c0,13.4,10.9,24.3,24.3,24.3h0
	c13.4,0,24.3-10.9,24.3-24.3v-7.1l5.3,4.6c4.6,3.9,10.2,5.8,15.8,5.8c0.2,0,0.4,0,0.6,0c0.2,0,0.4,0,0.6,0c5.6,0,11.3-1.9,15.8-5.8
	l5.2-4.5v7c0,13.4,10.9,24.3,24.3,24.3h0c13.4,0,24.3-10.9,24.3-24.3v-58c0.5-6.3-1.3-12.8-5.8-17.9h0c-4.5-5.2-10.8-8.1-17.2-8.4
	c0,0-0.1,0-0.1,0c-0.3,0-0.6,0-0.9,0C116.5,0,116.4,0,116.3,0L116.3,0z"/>
<path d="M118.9,44.9h-17.3c-8.1,0-14.8-6.6-14.8-14.8v0c0-8.1,6.6-14.8,14.8-14.8h17.3c8.1,0,14.8,6.6,14.8,14.8v0
	C133.7,38.2,127,44.9,118.9,44.9z"/>
<circle class="st1" cx="118.5" cy="30.1" r="11.4"/>
<circle cx="122.8" cy="30.1" r="3.2"/>
<path d="M53.2,44.9H35.9c-8.1,0-14.8-6.6-14.8-14.8v0c0-8.1,6.6-14.8,14.8-14.8h17.3c8.1,0,14.8,6.6,14.8,14.8v0
	C67.9,38.2,61.3,44.9,53.2,44.9z"/>
<circle class="st1" cx="52.8" cy="30.1" r="11.4"/>
<circle cx="57" cy="30.1" r="3.2"/>
<path class="st1" d="M51.9,57.8h37.2c-4.4,7.8-10.6,12-18.6,11.8C62.2,69.7,56,66.1,51.9,57.8z"/>
</svg>
